<svg xmlns="http://www.w3.org/2000/svg" viewBox="0 0 340 340"><g id="Layer_21" data-name="Layer 21"><path d="M111.211,207.75A234.6,234.6,0,0,0,145.7,196.467l37.253,39.905s-.062,39.862,31.451,90.437H24.778s-.9-26.486,5.142-49.231a34.111,34.111,0,0,1,7.053-13.293c3.1-3.645,7.416-8.94,11.7-14.9L62.7,231.265Z" style="fill:#f7f7f7"/><path d="M150.149,319.418a18.3,18.3,0,0,1-4.4-11.124c-1.114-25.808,7.035-55.239,10.43-66.243a4.984,4.984,0,0,0-3.021-6.149c-10.577-3.915-20.335-6.9-20.335-6.9l2.59-13.111a4.989,4.989,0,0,0-3.653-5.809,89.514,89.514,0,0,0-20.546-2.335c-9.889,2.479-16.842,3.7-16.842,3.7l-1.441.9-1.391,9.858,47.484,94.625a77.785,77.785,0,0,0,9.275,9.977h9.318A58.274,58.274,0,0,1,150.149,319.418Z" style="fill:#a7bad6"/><path d="M70.14,289.247A139.01,139.01,0,0,1,132.1,304.3l-13.234-44.654L74.341,222.207l-13.8,7.413a120.512,120.512,0,0,1-11.879,19.765,62.8,62.8,0,0,1-4.153,13.21,2.924,2.924,0,0,0,2.781,4.139l19.275-.806L65.481,284.3A4.667,4.667,0,0,0,70.14,289.247Z" style="fill:#a7bad6"/><path d="M68.464,226.912l3.89,14.219s22.073,25.22,52.351,34.944c0,0-12.109-41.785-26.462-62.04Z" style="fill:#a7b7ea"/><path d="M119.25,254.361l-18.211-13.3a2.776,2.776,0,0,0-3.113-.112l-1.2.749a2.78,2.78,0,0,0-1.156,3.256l7.754,22.661a107.317,107.317,0,0,0,24.314,11.624S124.385,268,119.25,254.361Z" style="fill:#3c3c4f"/><path d="M56.867,210.7c1,3.083,2.025,6.692,2.98,10.86,0,0,3.908,14.893,24.271,14.813a13.235,13.235,0,0,0,12.742-9.429,23.659,23.659,0,0,0,.662-3.066,16.885,16.885,0,0,0-3.153-12.43,44.839,44.839,0,0,1-3.385-5.436A145.507,145.507,0,0,0,56.867,210.7Z" style="fill:#ffcac0"/><path d="M245.282,42.623h0a6.855,6.855,0,0,0-8.446,1.249h0a6.854,6.854,0,0,0-.434,8.849l.8,1.044a6.55,6.55,0,0,1,1.1,5.781c-2.433,8.583-5.507,38.028,28.018,41.147,32.272,3,32.671-28.64,31.966-38.888a10.877,10.877,0,0,1,1.677-6.652c2.2-3.414,6.219-8.447,11.981-11.012a7.43,7.43,0,0,1,3.886-.613c4.026.476,14.4.71,15.008-9.366A15.239,15.239,0,0,0,324.575,20.5,11.66,11.66,0,0,0,312.5,19.1c-3.13,1.525-6.157,4.8-6.506,11.7a7.438,7.438,0,0,1-2.888,5.6,35.5,35.5,0,0,1-9.219,5.187,10.965,10.965,0,0,1-9.033-.881c-5.868-3.332-19.6-9.037-32.126,1.3A6.544,6.544,0,0,1,245.282,42.623Z" style="fill:#f74f73"/><path d="M217.219,78.015a10.314,10.314,0,0,0-13.281,9.592c0,.36.005.732.029,1.117.31,5.072,4.549,7.131,8.548,7.939a10.233,10.233,0,0,0,12.359-9.6,11.3,11.3,0,0,0-.2-2.313C223.927,80.783,220.359,78.905,217.219,78.015Z" style="fill:#b21f42"/><path d="M220.188,19.911a10.317,10.317,0,0,0-5.756-1.017c-3.852.4-10.238,2.306-10.495,10.489a11.293,11.293,0,0,0,2.946,8.592c3.955,4.1,10.484,3.9,14.712.082a12.472,12.472,0,0,0,4.276-8.276C226.371,24.153,222.865,21.274,220.188,19.911Z" style="fill:#f74f73"/><path d="M269.69,56.063a8.072,8.072,0,0,1,12.181-4.622,11.785,11.785,0,0,1,5.1,7.586c1.5,7.181-4.31,9.12-7.161,9.635a8.059,8.059,0,0,1-2.966-.022c-2.911-.562-9.014-2.585-7.81-9.613A29.209,29.209,0,0,1,269.69,56.063Z" style="fill:#b21f42"/><path d="M249.1,72.578a6.2,6.2,0,0,1,8.883-4.264,10.563,10.563,0,0,1,5.539,6.375c1.185,3.976-1.412,6.824-4.137,8.631a6.27,6.27,0,0,1-8.985-2.267A12.244,12.244,0,0,1,249.1,72.578Z" style="fill:#b21f42"/><path d="M121.2,39.691h0a5.506,5.506,0,0,1,6.751,2.733l1.068,2.135a2.711,2.711,0,0,0,2.748,1.476c4.088-.476,13.8-.464,17.526,9.493a12.391,12.391,0,0,0,8.141,7.479h0a4.95,4.95,0,0,0,4.438-.8,14.275,14.275,0,0,1,12.344-2.753,10.744,10.744,0,0,1,6.644,5.2A13.874,13.874,0,0,1,178.2,82.5c-2.738,2.276-6.606,3.66-11.869,1.866a15.6,15.6,0,0,1-6.932-7.108,4.994,4.994,0,0,0-3.979-2.963l-4.9-.6a7.489,7.489,0,0,0-7.371,3.614c-2.506,4.24-8.274,9.823-20.938,7.882,0,0-12.578-2.444-13.7-17.558a19.091,19.091,0,0,1,7.91-16.865,2.7,2.7,0,0,0,1.1-2.178v-3.7A5.506,5.506,0,0,1,121.2,39.691Z" style="fill:#f74f73"/><path d="M118.694,12.367a10.2,10.2,0,0,0-16.629,4.77,15.532,15.532,0,0,0-.512,4.417c.1,5.523,3.617,7.477,6.814,8.109a12.783,12.783,0,0,0,9.73-1.98,8.593,8.593,0,0,0,3.663-10A10.932,10.932,0,0,0,118.694,12.367Z" style="fill:#b21f42"/><path d="M118,119.569a10.2,10.2,0,0,0,6.544-16.014,15.54,15.54,0,0,0-3.153-3.137c-4.4-3.339-8.111-1.785-10.586.334a12.785,12.785,0,0,0-4.467,8.869,8.6,8.6,0,0,0,5.592,9.069A10.94,10.94,0,0,0,118,119.569Z" style="fill:#f74f73"/><path d="M280.238,144.253s8.136,6.719,16.12,1.158c5.2-3.623,6.592-7.945,6.471-11.716a14.26,14.26,0,0,0-9.467-12.8,5.013,5.013,0,0,1-3.137-3.292l-.07-.245a4.1,4.1,0,0,0-4.489-2.936l-1.18.159a4.1,4.1,0,0,0-3.506,3.46l-.467,3.142a4.832,4.832,0,0,1-1.195,2.546C276.691,126.622,270.241,135.489,280.238,144.253Z" style="fill:#f74f73"/><path d="M58.865,217.553s18.319,23.491,51.346,46.175a60.964,60.964,0,0,1,8.869,27.743c-11.439-4.893-28.745-11.125-44.958-12.338V258.36l-21.527.769S60.261,239.066,58.865,217.553Z" style="fill:#f7f7f7"/><path d="M123.377,272.208c-4.62-2.783-9-5.629-13.162-8.487l2.9,26.626c7.909,3.382,18.985,7.25,18.985,7.25Z" style="fill:#a7bad6"/><path d="M94.369,211.447s23.153,47.416,33.189,85.462A41.568,41.568,0,0,0,134,310.663a70.914,70.914,0,0,0,5.018,6.169S137.507,275.8,145.7,242.2l-23.863-7.437,2.564-18.722A193.267,193.267,0,0,0,94.369,211.447Z" style="fill:#f7f7f7"/><circle cx="156.31" cy="309.551" r="3.766" style="fill:#a7bad6"/><circle cx="273.502" cy="80.98" r="4.984" style="fill:#b21f42"/><path d="M56.865,210.7c5.079,2.73,16.531,6.005,34.122-4.691A54.814,54.814,0,0,1,86.092,192.8l-35.548,3.441S53.609,200.7,56.865,210.7Z" style="fill:#e5837c"/><path d="M30.555,183.5s-22.18-6.785-21.4-30.008a15.089,15.089,0,0,1,9.133-11.482s-6-20.926,14.612-32.929c10.739-6.253,19.848-10.58,28.289-13.4,13.907-4.65,27.942,7.289,25.215,21.7A47.494,47.494,0,0,1,80.133,133.4L61.867,187.677S47.349,193.417,30.555,183.5Z" style="fill:#5c5c6d"/><path d="M47.516,184.024s-4.057-9.242-13.638-8.871a9.157,9.157,0,0,0-4.458,1.339c-2.5,1.544-6.019,4.859-4.084,10.663,2.87,8.611,10.177,13.308,22.18,7.828l6.285,6.465a13.1,13.1,0,0,0,7.893,3.929A38.11,38.11,0,0,0,83,201.507c8.518-10.1,11.735-25.947,13.307-43.577,0,0-6.262-14.613-16.178-24.529,0,0-14.694,8.916-29.243,15.716a12.146,12.146,0,0,0-6.44,14.817A58.435,58.435,0,0,1,47.516,184.024Z" style="fill:#ffcac0"/><path d="M70.43,175.638S88.057,169.5,96.311,157.93a42.56,42.56,0,0,1,5.382,9.985l1.834,7.1c1.235,9.246-2.152,20.062-20.523,26.5C83,201.507,86.111,182.467,70.43,175.638Z" style="fill:#bdf2dc"/><path d="M69.805,161.543a2.972,2.972,0,0,1-.388-5.919l2.288-.305a2.973,2.973,0,0,1,.785,5.893l-2.289.305A3.122,3.122,0,0,1,69.805,161.543Z" style="fill:#e5837c"/><path d="M42.086,189.93a2,2,0,0,0,.364-2.387c-2.6-4.8-5.919-5.94-8.16-6.079a1.925,1.925,0,0,0-1.954,2.415h0a1.966,1.966,0,0,0,1.759,1.446c1.25.112,3.157.875,4.788,4.024a2.037,2.037,0,0,0,2.287,1.092A2.069,2.069,0,0,0,42.086,189.93Z" style="fill:#e5837c"/><path d="M162.274,118.218l-14.028,3.028s.738,28.341-23.541,55.757c0,0,41.962,93.963,140.843,76.152Z" style="fill:#7aaeed"/><path d="M143.873,179.572s22.49-25.063,18.4-61.354c0,0,18.912,1.9,50.6-2.628,0,0,71.815,58.854,67.214,136.8C280.091,252.392,201.632,273.894,143.873,179.572Z" style="fill:#bddeff"/><path d="M189.756,259.776a3.468,3.468,0,0,0-6.762,1.544c3.554,15.571,11.377,39.887,28.465,67.311a3.468,3.468,0,1,0,5.887-3.667C200.768,298.357,193.192,274.829,189.756,259.776Z" style="fill:#3c3c4f"/><path d="M326.66,17.719a15.038,15.038,0,0,0-15.681-1.754c-3.606,1.758-8,5.727-8.449,14.645a3.99,3.99,0,0,1-1.519,3.01A32.1,32.1,0,0,1,292.74,38.3a7.487,7.487,0,0,1-6.174-.623c-6.068-3.445-21.728-10.18-36.048,1.646a3.087,3.087,0,0,1-3.5.292v0a10.323,10.323,0,0,0-13.373,15.208l.8,1.044a3.064,3.064,0,0,1,.513,2.727c-.527,1.862-4.9,18.577,4.143,31.765,5.481,8,14.528,12.631,26.891,13.781q2.313.215,4.489.215c8.764,0,15.874-2.612,21.177-7.789,10.563-10.311,10.569-27.916,10.081-35.006a7.369,7.369,0,0,1,1.131-4.534c2.089-3.238,5.6-7.553,10.478-9.724a3.931,3.931,0,0,1,2.069-.336c3.475.41,9.976.537,14.471-3.22a12.681,12.681,0,0,0,4.4-9.38A18.6,18.6,0,0,0,326.66,17.719Zm.709,16.222a5.965,5.965,0,0,1-1.932,4.479c-1.8,1.5-5.242,2.118-9.208,1.653a10.875,10.875,0,0,0-5.7.888c-6.435,2.864-10.885,8.27-13.486,12.3a14.25,14.25,0,0,0-2.221,8.769c.421,6.128.485,21.278-8.007,29.567-4.659,4.548-11.444,6.443-20.179,5.63-10.213-.95-17.552-4.582-21.812-10.8-5.89-8.592-4.777-20.356-3.191-25.952a10.071,10.071,0,0,0-1.68-8.835l-.8-1.044a3.385,3.385,0,0,1,4.388-4.989,10.049,10.049,0,0,0,11.4-.943c10.6-8.753,22.222-4.359,28.206-.964a14.433,14.433,0,0,0,11.891,1.139A39.062,39.062,0,0,0,305.2,39.149a10.9,10.9,0,0,0,4.258-8.189c.228-4.509,1.72-7.375,4.561-8.759a8.244,8.244,0,0,1,8.465,1.054A11.786,11.786,0,0,1,327.369,33.941Z" style="fill:#3c3c4f"/><path d="M175.028,56.068a17.768,17.768,0,0,0-15.295,3.388,1.479,1.479,0,0,1-1.327.212,8.946,8.946,0,0,1-5.872-5.368C149.4,45.934,141.7,41.547,131.877,42.524l-.831-1.663a8.974,8.974,0,0,0-17,4.013V48.19a22.365,22.365,0,0,0-9,19.684c1.046,14.044,11.252,19.685,16.5,20.7l.136.025a36.157,36.157,0,0,0,5.477.437c11.226,0,16.634-6.026,18.972-9.983a4.029,4.029,0,0,1,3.961-1.936l4.9.6a1.528,1.528,0,0,1,1.218.9,18.827,18.827,0,0,0,8.635,8.868,3.554,3.554,0,0,0,.362.146c5.67,1.932,10.928,1.074,15.2-2.481a17.411,17.411,0,0,0,3.41-22.311A14.206,14.206,0,0,0,175.028,56.068Zm.948,23.752c-2.332,1.94-5.049,2.375-8.3,1.326a12.066,12.066,0,0,1-5.1-5.275,8.489,8.489,0,0,0-6.739-5.03l-4.9-.6a10.945,10.945,0,0,0-10.781,5.292c-2.189,3.706-6.97,7.79-17.324,6.232-.914-.21-10-2.6-10.874-14.4a15.579,15.579,0,0,1,6.5-13.811,6.189,6.189,0,0,0,2.519-4.974v-3.7a2.038,2.038,0,0,1,3.861-.912L125.91,46.1a6.2,6.2,0,0,0,6.252,3.371c3.992-.467,11.1-.141,13.876,7.264a15.918,15.918,0,0,0,10.411,9.589A8.438,8.438,0,0,0,164,64.928a10.783,10.783,0,0,1,9.394-2.12,7.256,7.256,0,0,1,4.5,3.627A10.436,10.436,0,0,1,175.976,79.82Z" style="fill:#3c3c4f"/><path d="M294.558,117.632a1.557,1.557,0,0,1-1-.988l-.07-.249a7.622,7.622,0,0,0-8.289-5.42l-1.178.16a7.6,7.6,0,0,0-6.473,6.387l-.467,3.142a1.363,1.363,0,0,1-.332.724c-2.15,2.366-5.705,7.25-5.357,13.385.25,4.418,2.457,8.481,6.557,12.076.026.023.052.045.079.066a19.068,19.068,0,0,0,11.5,4.133,15.154,15.154,0,0,0,8.805-2.8c6.812-4.746,8.086-10.6,7.955-14.675A17.655,17.655,0,0,0,294.558,117.632Zm-.186,24.922c-5.512,3.84-11.34-.525-11.908-.97-2.613-2.307-4.009-4.731-4.149-7.2-.213-3.741,2.423-7.07,3.566-8.329a8.277,8.277,0,0,0,2.059-4.369l.466-3.142a.633.633,0,0,1,.541-.531l1.178-.16a.634.634,0,0,1,.691.448l.07.248a8.524,8.524,0,0,0,5.269,5.593,10.753,10.753,0,0,1,7.2,9.656C299.471,137.274,297.839,140.139,294.372,142.554Z" style="fill:#3c3c4f"/><path d="M149.067,243.013a3.469,3.469,0,0,0-2.337-4.133l-21.061-6.563,2.167-15.814a3.468,3.468,0,0,0-2.577-3.83c-.3-.076-4.305-1.09-10.714-2.206,3.935-1.022,8.246-2.226,12.736-3.62a3.468,3.468,0,1,0-2.057-6.625,294.093,294.093,0,0,1-29.281,7.386,45.732,45.732,0,0,1-3.475-6.526c7.221-4.024,11.841-9.311,13.764-15.79,3.961-13.34-5.164-26.736-6.907-29.127-1.019-2.29-6.457-14.019-14.9-23.291a50.478,50.478,0,0,0,5.383-14.861,22.3,22.3,0,0,0-7.36-21.135,22.734,22.734,0,0,0-22.362-4.5c-8.68,2.9-17.874,7.253-28.934,13.693-17.98,10.469-17.678,27.366-16.746,34.041a18.442,18.442,0,0,0-8.7,13.022c-.008.076-.013.153-.015.228A31.834,31.834,0,0,0,13.6,176.2a3.468,3.468,0,0,0,5.208-4.58,25.071,25.071,0,0,1-6.192-17.86,11.681,11.681,0,0,1,7.062-8.587,3.465,3.465,0,0,0,1.943-4.132c-.052-.184-5.048-18.453,13.025-28.977,10.639-6.2,19.423-10.361,27.643-13.109a15.872,15.872,0,0,1,15.6,3.144A15.436,15.436,0,0,1,83,116.723a44,44,0,0,1-5.411,14.149c-3.149,1.878-15.783,9.3-28.165,15.091a15.615,15.615,0,0,0-8.263,19.057A57.7,57.7,0,0,1,43.43,174.3a16.873,16.873,0,0,0-12.47-2.312,3.334,3.334,0,0,0-.49.129c-4.979,1.707-11.332,7.408-8.428,16.119,1.815,5.447,5.093,9.334,9.479,11.242,4.344,1.889,9.431,1.753,15.147-.4L50,202.506c.025.062.036.126.065.187a94.8,94.8,0,0,1,5.351,15.39,88.635,88.635,0,0,1-.452,15.1c-.135.163-15.685,23.023-20.637,28.849a37.824,37.824,0,0,0-7.763,14.65c-6.1,22.975-5.294,49.135-5.256,50.238a3.467,3.467,0,0,0,3.464,3.35l.119,0a3.468,3.468,0,0,0,3.349-3.583c-.009-.26-.807-26.259,5.028-48.223a30.855,30.855,0,0,1,6.343-11.938c2.937-3.454,7.327-8.823,11.744-14.958-1.094,3.9-1.978,6.252-2,6.319a3.47,3.47,0,0,0,.418,3.255,3.52,3.52,0,0,0,2.945,1.448l17.935-.641v17.179a3.467,3.467,0,0,0,3.209,3.458c13.707,1.025,28.328,5.861,38.179,9.739a3.468,3.468,0,0,0,2.54-6.454c-13.626-5.363-26.052-8.688-36.992-9.9V258.348a3.47,3.47,0,0,0-1.06-2.5,3.519,3.519,0,0,0-2.532-.97l-16.536.591a118.744,118.744,0,0,0,4.954-28.482,270.442,270.442,0,0,0,53.537,44.68c3.142,8.771,6.031,17.691,8.252,26.111a44.892,44.892,0,0,0,6.986,14.9,74.136,74.136,0,0,0,5.146,6.338l6.6,8.679a3.467,3.467,0,1,0,5.519-4.2l-6-7.891C142.294,308.935,141.815,272.743,149.067,243.013ZM99.575,183.345c-1.579,5.283-5.889,9.6-12.838,12.889a32.71,32.71,0,0,0-1.526-8.7,39.128,39.128,0,0,0,9.723-4.839,3.468,3.468,0,0,0-3.951-5.7,32.313,32.313,0,0,1-8.757,4.212,23.112,23.112,0,0,0-4.331-4.978c5.169-2.465,12.489-6.624,18.042-12.455C98.445,168.258,101.749,176.07,99.575,183.345Zm-47.219-31.1c11.083-5.18,22.354-11.638,27.162-14.46,6.359,7.076,10.953,15.917,12.758,19.673-7.639,9.191-21.761,14.446-22.914,14.863-7.43,2.236-13.631,3-18.889,2.322a64.079,64.079,0,0,0-2.736-11.818A8.678,8.678,0,0,1,52.356,152.247Zm-6.285,39.57c-4.719,2.154-8.793,2.606-11.783,1.305-3.2-1.392-4.846-4.615-5.666-7.075-1.549-4.647,2.338-6.679,3.883-7.284,7.978-1.307,11.464,5.834,11.831,6.644a3.468,3.468,0,0,0,6.642-1.289c.025-.811.028-1.624.018-2.439,1.071.094,2.165.146,3.291.146a58.155,58.155,0,0,0,15.834-2.5c9.524,4.89,9.889,15.623,9.63,19.862a34.472,34.472,0,0,1-17.672,2.737,9.65,9.65,0,0,1-5.8-2.9L50,192.555A3.468,3.468,0,0,0,46.071,191.817ZM62.02,215.935c-.732-2.74-1.481-5.205-2.21-7.369.493.1.99.188,1.492.245a40.251,40.251,0,0,0,4.523.252,41.68,41.68,0,0,0,18.532-4.373q.93-.33,1.822-.676a51.117,51.117,0,0,0,5.185,9.181c.3.627,1.193,2.479,2.513,5.31a12.865,12.865,0,0,1,.212,4.846,20.634,20.634,0,0,1-.565,2.621,9.8,9.8,0,0,1-9.423,6.92H84a37.925,37.925,0,0,1-6.8-.692A199.937,199.937,0,0,1,62.02,215.935Zm23.316,23.839a16.845,16.845,0,0,0,13.92-9.433c3.685,8.308,8.2,18.912,12.579,30.274A270.862,270.862,0,0,1,85.336,239.774Zm45.572,56.239c-8-30.324-24.418-66.876-30.806-80.569a200.057,200.057,0,0,1,20.431,3.258L118.4,234.284a3.467,3.467,0,0,0,2.4,3.781l20.784,6.478c-5.141,22.945-6.079,48.222-6.153,62.028A38.391,38.391,0,0,1,130.908,296.013Z" style="fill:#3c3c4f"/><path d="M121.844,176.489a6.334,6.334,0,0,0,.616,3.813A162.614,162.614,0,0,0,153.9,222.023c18.073,17.312,47.458,36.693,88.422,36.692a134.757,134.757,0,0,0,14.5-.8c1.123.033,2.222.052,3.281.052a86.043,86.043,0,0,0,20.844-2.228,3.37,3.37,0,0,0,2.611-3.158c2.435-41.273-16.339-77.077-32.518-99.845-17.447-24.553-35.213-39.231-35.961-39.844a3.483,3.483,0,0,0-2.689-.751c-27.235,3.891-45.659,2.95-49.578,2.678a5.689,5.689,0,0,0-1.589.112l-13.705,2.911a3.475,3.475,0,0,0-2.735,3.472c.006.266.318,26.436-21.454,51.974a6.421,6.421,0,0,0-1.477,3.2ZM211.81,119.23a216.693,216.693,0,0,1,23.84,24.839,75.5,75.5,0,0,1-6.974,22.678,3.468,3.468,0,1,0,6.239,3.029,84.11,84.11,0,0,0,6.471-18.455q2.049,2.7,4.1,5.591c13.826,19.492,29.628,48.893,31.2,82.872-28.169-45.462-72.446-88.69-97.5-111.366a3.468,3.468,0,1,0-4.655,5.142c12.268,11.1,29.2,27.188,46.524,46.02-14.585,20.736-35.473,33.975-42.152,37.872a181.525,181.525,0,0,1-30.78-37.606c5.111-6.542,19.827-28.141,17.951-57.92C173.184,122.239,189.1,122.367,211.81,119.23Zm22.634,128.738c-14.051-3.359-31.822-10.582-50.027-25.7,8.474-5.128,27.268-17.87,41.424-37.43,17.809,19.813,35.622,42.307,48.856,65.089A105.31,105.31,0,0,1,234.444,247.968ZM151.633,124.051l7.512-1.622c1.678,27.674-12.573,48.107-16.735,53.437l-11.034-1.479C148.361,152.728,151.188,131.629,151.633,124.051Zm-20.724,57.271,10.889,1.459c10.8,17.352,22.307,30.72,33.778,41.006a3.449,3.449,0,0,0,1.04.938A137.394,137.394,0,0,0,213.754,248.4c-19.96-4.975-38.32-15.4-54.886-31.217A160.237,160.237,0,0,1,130.909,181.322Z" style="fill:#3c3c4f"/></g></svg>